<svg xmlns="http://www.w3.org/2000/svg" viewBox="0 0 640 360" width="640" height="360" role="img" aria-label="Cohort 留存图占位图">
  <rect width="640" height="360" fill="#ffffff"/>
  <rect x="0.5" y="0.5" width="639" height="359" fill="none" stroke="#e7e5e4"/>
  <g fill="#ff5a3c">
    <rect x="80" y="50" width="80" height="46" opacity="0.95"/><rect x="168" y="50" width="80" height="46" opacity="0.7"/><rect x="256" y="50" width="80" height="46" opacity="0.5"/><rect x="344" y="50" width="80" height="46" opacity="0.35"/><rect x="432" y="50" width="80" height="46" opacity="0.22"/>
    <rect x="80" y="104" width="80" height="46" opacity="0.9"/><rect x="168" y="104" width="80" height="46" opacity="0.62"/><rect x="256" y="104" width="80" height="46" opacity="0.42"/><rect x="344" y="104" width="80" height="46" opacity="0.28"/><rect x="432" y="104" width="80" height="46" opacity="0.16"/>
    <rect x="80" y="158" width="80" height="46" opacity="0.85"/><rect x="168" y="158" width="80" height="46" opacity="0.55"/><rect x="256" y="158" width="80" height="46" opacity="0.34"/><rect x="344" y="158" width="80" height="46" opacity="0.2"/><rect x="432" y="158" width="80" height="46" opacity="0.12"/>
    <rect x="80" y="212" width="80" height="46" opacity="0.8"/><rect x="168" y="212" width="80" height="46" opacity="0.48"/><rect x="256" y="212" width="80" height="46" opacity="0.28"/><rect x="344" y="212" width="80" height="46" opacity="0.16"/><rect x="432" y="212" width="80" height="46" opacity="0.1"/>
  </g>
  <text x="80" y="300" font-family="sans-serif" font-size="16" fill="#6b7280">占位图：Cohort 留存热力图</text>
</svg>
